<?xml version="1.0" standalone="no"?><!DOCTYPE svg PUBLIC "-//W3C//DTD SVG 1.1//EN" "http://www.w3.org/Graphics/SVG/1.1/DTD/svg11.dtd"><svg width="80" height="80" viewBox="0 0 80 80" version="1.1" xmlns="http://www.w3.org/2000/svg" xmlns:xlink="http://www.w3.org/1999/xlink"><defs><style type="text/css"><![CDATA[
@font-face { font-family: ifont; src: url("http://at.alicdn.com/t/font_1442373896_4754455.eot?#iefix") format("embedded-opentype"), url("http://at.alicdn.com/t/font_1442373896_4754455.woff") format("woff"), url("http://at.alicdn.com/t/font_1442373896_4754455.ttf") format("truetype"), url("http://at.alicdn.com/t/font_1442373896_4754455.svg#ifont") format("svg"); }

]]></style></defs><g class="transform-group"><g transform="scale(0.078125, 0.078125)"><path d="M197.417255 493.294986 197.417255 337.187579l29.785374 0 0 156.465564c0 64.59518 27.991518 84.691891 63.160505 84.691891 35.528168 0 64.596204-20.09671 64.596204-84.691891L354.959338 337.187579l28.350698 0 0 156.107407c0 83.615373-41.269939 111.24771-92.946902 111.24771C238.686171 604.542696 197.417255 576.910359 197.417255 493.294986zM432.120718 565.425793l17.942651-20.454868c19.020192 20.454868 45.576011 33.374108 73.567529 33.374108 35.887348 0 57.777915-18.301831 57.777915-45.215808 0-28.350698-19.73753-37.323047-44.858674-48.447409l-38.039361-16.866133c-24.403806-10.407024-53.471842-28.350698-53.471842-66.74924 0-39.83424 34.45165-68.543096 81.104179-68.543096 31.580253 0 58.495252 13.278421 76.438926 32.298614l-15.790638 19.019169c-16.148795-15.431457-35.528168-25.120121-60.649312-25.120121-30.503734 0-50.958602 15.431457-50.958602 40.193421 0 26.915 23.685445 36.962843 43.782156 45.576011l38.040385 16.149818c30.144554 13.278421 54.547337 31.221072 54.547337 70.336952 0 41.269939-34.091446 73.567529-88.281649 73.567529C485.949694 604.542696 454.728622 589.470419 432.120718 565.425793zM783.811616 516.979408l-97.970312 0-26.915 82.898035-29.785374 0 89.716324-262.689864 32.656771 0 90.074482 262.689864-31.579229 0L783.811616 516.979408zM776.274966 493.653143l-13.636578-42.705638c-10.047844-29.785374-18.301831-58.136072-27.273157-88.998987l-1.435699 0c-8.612145 31.221072-17.225313 59.21259-26.915 88.998987l-13.636578 42.705638L776.274966 493.653143zM512 896.085702c-59.20031 0-116.643604-11.601222-170.737616-34.480302-52.232618-22.093181-99.136881-53.714366-139.409097-93.986581-40.272215-40.272215-71.8934-87.176478-93.986581-139.409097C84.987626 574.11571 73.386404 516.671393 73.386404 457.472106s11.601222-116.643604 34.480302-170.737616c22.093181-52.232618 53.714366-99.136881 93.986581-139.409097s87.176478-71.8934 139.409097-93.986581C395.355373 30.458709 452.79969 18.857487 512 18.857487s116.643604 11.601222 170.737616 34.480302c52.233642 22.092158 99.137905 53.714366 139.409097 93.986581s71.8934 87.176478 93.986581 139.409097c22.87908 54.092989 34.480302 111.537306 34.480302 170.737616s-11.601222 116.644627-34.480302 170.737616c-22.093181 52.232618-53.714366 99.136881-93.986581 139.409097-40.271192 40.271192-87.175455 71.8934-139.409097 93.986581C628.643604 884.48448 571.199287 896.085702 512 896.085702zM512 77.18594c-209.689766 0-380.285143 170.595376-380.285143 380.285143 0 209.69079 170.595376 380.285143 380.285143 380.285143s380.285143-170.595376 380.285143-380.285143C892.285143 247.781316 721.689766 77.18594 512 77.18594z" fill="#ea8010"></path></g></g></svg>